<?xml version="1.0" encoding="UTF-8"?>
<svg version="1.1" xmlns="http://www.w3.org/2000/svg" width="928" height="313">
<path d="M0 0 C306.24 0 612.48 0 928 0 C928 103.29 928 206.58 928 313 C621.76 313 315.52 313 0 313 C0 209.71 0 106.42 0 0 Z " fill="#FEFEFE" transform="translate(0,0)"/>
<path d="M0 0 C1.31935547 -0.00773437 2.63871094 -0.01546875 3.99804688 -0.0234375 C18.25120306 0.00480055 32.64630028 1.02675816 43.4375 11.25 C43.7675 8.61 44.0975 5.97 44.4375 3.25 C49.7175 3.25 54.9975 3.25 60.4375 3.25 C60.55392242 15.75118085 60.64248185 28.25223036 60.69656086 40.75384521 C60.72253074 46.56037703 60.75769607 52.36653489 60.81469727 58.17285156 C60.86946957 63.78798032 60.89901506 69.40275192 60.91188622 75.01812744 C60.92104555 77.14851494 60.93892894 79.27888538 60.96615028 81.40911865 C61.1500259 96.41032792 61.0311884 112.52430788 50.421875 124.42578125 C42.28808252 131.90310623 32.94650163 134.04886647 22.4375 136.25 C21.32991333 136.51586914 21.32991333 136.51586914 20.19995117 136.78710938 C16.66227737 137.37990032 13.17756089 137.41239992 9.6015625 137.41796875 C8.84515472 137.42129715 8.08874695 137.42462555 7.30941772 137.42805481 C5.70742395 137.43310663 4.1054197 137.43546367 2.50341797 137.43530273 C0.10495506 137.43746178 -2.29302629 137.4555589 -4.69140625 137.47460938 C-36.33553134 137.59391383 -36.33553134 137.59391383 -48.625 127.8125 C-52.55265663 122.61785736 -53.5625 119.93251846 -53.5625 113.25 C-48.2825 113.25 -43.0025 113.25 -37.5625 113.25 C-36.9025 114.9 -36.2425 116.55 -35.5625 118.25 C-25.93557089 123.86570865 -13.39786522 122.43637215 -2.60424805 122.43530273 C-0.13377719 122.43749222 2.33624817 122.45571395 4.80664062 122.47460938 C22.2873579 122.87987309 22.2873579 122.87987309 37.4375 115.25 C42.87215508 108.45262544 43.77929887 100.62407238 43.4375 92.25 C42.839375 92.971875 42.24125 93.69375 41.625 94.4375 C33.36993793 102.66917663 20.43715147 104.55434658 9.30078125 104.5859375 C8.45887741 104.5925943 7.61697357 104.5992511 6.7495575 104.60610962 C4.97897501 104.61616585 3.20835516 104.62092884 1.43774414 104.62060547 C-1.22640778 104.62496143 -3.88887625 104.66130782 -6.55273438 104.69921875 C-21.38420594 104.79692551 -35.65334069 102.94427395 -47.3125 92.875 C-57.85728323 80.5727529 -58.75001528 68.54298248 -58.8125 52.625 C-58.833125 51.33464844 -58.85375 50.04429687 -58.875 48.71484375 C-58.92878938 35.36163111 -57.25705249 22.61285869 -47.8984375 12.44140625 C-34.83701227 0.48334342 -16.77702329 -0.09864002 0 0 Z " fill="#040404" transform="translate(489.5625,109.75)"/>
<path d="M0 0 C46.86 0 93.72 0 142 0 C142 18.81 142 37.62 142 57 C138.37 57 134.74 57 131 57 C130.82984375 55.576875 130.6596875 54.15375 130.484375 52.6875 C130.24034422 50.79156858 129.99550978 48.89574047 129.75 47 C129.64042969 46.06542969 129.53085937 45.13085938 129.41796875 44.16796875 C127.89968905 32.74091625 123.58134298 26.41377555 114.5 19.375 C108.76369053 15.3977099 102.80771835 14.12039252 96 13 C96 12.34 96 11.68 96 11 C92.7 11 89.4 11 86 11 C86.01487699 27.92501744 86.0561528 44.84967836 86.13209057 61.77452755 C86.16669345 69.63365192 86.19208989 77.49260176 86.19555664 85.35180664 C86.19860311 92.20464369 86.21918485 99.05716951 86.26052457 105.90988642 C86.28179487 109.53597179 86.29448632 113.16161538 86.28615379 116.7877636 C86.27716415 120.84323533 86.30733616 124.89753519 86.34057617 128.95288086 C86.32763771 130.74176476 86.32763771 130.74176476 86.31443787 132.56678772 C86.41297134 139.75096845 87.38287837 145.30272508 92 151 C96.72326732 155.00279908 101.19572148 155.24328735 107.1875 155.5625 C108.31188477 155.62727539 108.31188477 155.62727539 109.45898438 155.69335938 C111.30578375 155.79922685 113.15286834 155.9000976 115 156 C115 160.29 115 164.58 115 169 C85.96 169 56.92 169 27 169 C27 164.71 27 160.42 27 156 C28.0621875 155.98582031 29.124375 155.97164062 30.21875 155.95703125 C41.60530444 155.8394357 41.60530444 155.8394357 51 150 C52.55761769 147.37540603 52.55761769 147.37540603 53 145 C53.66 145 54.32 145 55 145 C55.33 100.78 55.66 56.56 56 11 C41.95865967 12.27648548 30.06003307 14.55079738 20 25 C12.32385581 34.23739385 11.48395114 45.41854866 11 57 C7.37 57 3.74 57 0 57 C0 38.19 0 19.38 0 0 Z " fill="#E20575" transform="translate(717,67)"/>
<path d="M0 0 C2.17463509 -0.009634 4.34829379 -0.04068448 6.52270508 -0.07226562 C30.76445581 -0.25532501 30.76445581 -0.25532501 39.1418457 7.24023438 C48.90059316 18.08328711 47.77706805 32.92535187 47.29418945 46.67773438 C46.79474046 55.07872255 45.10450474 63.98187899 39.1418457 70.24023438 C29.50405121 77.73022847 18.75926751 77.06977844 7.13256836 76.85766602 C4.01642323 76.80272693 0.9029575 76.79613961 -2.21362305 76.796875 C-4.22276042 76.78212946 -6.23187994 76.76464447 -8.2409668 76.74414062 C-9.15790314 76.74080215 -10.07483948 76.73746368 -11.01956177 76.73402405 C-20.17038745 76.53532943 -28.31839491 74.93950009 -34.8581543 68.24023438 C-40.82284451 60.3583223 -40.20188631 50.48536727 -40.17382812 41.08691406 C-40.17067125 38.8771004 -40.19417172 36.66863298 -40.21948242 34.45898438 C-40.26514787 24.4259958 -40.00811708 14.3903195 -32.7253418 6.70898438 C-23.45645535 -0.58202254 -11.17038345 0.02980425 0 0 Z " fill="#FCFCFC" transform="translate(486.858154296875,123.759765625)"/>
<path d="M0 0 C3.74504974 3.3342004 6.25085044 6.84630132 7.8515625 11.6484375 C7.98135689 14.65447546 7.89519423 17.63784781 7.8515625 20.6484375 C2.5715625 20.6484375 -2.7084375 20.6484375 -8.1484375 20.6484375 C-9.1384375 17.1834375 -9.1384375 17.1834375 -10.1484375 13.6484375 C-14.3611556 8.59317579 -20.93127925 7.65796092 -27.1484375 6.6484375 C-33.1834977 6.19622175 -39.23593019 6.25766428 -45.28393555 6.31225586 C-48.07695483 6.33586158 -50.86901529 6.33279581 -53.66210938 6.32617188 C-71.19665101 5.75698058 -71.19665101 5.75698058 -87.1484375 11.6484375 C-90.38180719 16.41084045 -89.53919798 22.0805829 -88.7109375 27.5234375 C-86.12246897 31.0437547 -82.29390692 31.68458926 -78.1484375 32.6484375 C-74.22398907 33.05943604 -70.33032815 33.08940755 -66.38671875 33.08984375 C-65.27846237 33.10305161 -64.17020599 33.11625946 -63.02836609 33.12986755 C-59.50586442 33.1705077 -55.98361923 33.19233987 -52.4609375 33.2109375 C-9.55527503 33.50438555 -9.55527503 33.50438555 1.859375 43.38671875 C8.67474903 50.81119626 8.45125402 59.50796551 8.22265625 69.0546875 C7.8453848 75.72473925 5.75526862 79.69874508 1.125 84.40234375 C-11.5296913 95.20830442 -33.04665843 93.99116112 -48.82177734 93.90917969 C-51.27856936 93.89841501 -53.73463549 93.90917346 -56.19140625 93.921875 C-89.68584012 93.95273171 -89.68584012 93.95273171 -101.5546875 82.5703125 C-106.04682128 77.15332765 -106.1484375 72.65064818 -106.1484375 65.6484375 C-100.8684375 65.6484375 -95.5884375 65.6484375 -90.1484375 65.6484375 C-89.7565625 67.0509375 -89.3646875 68.4534375 -88.9609375 69.8984375 C-87.495539 74.20009116 -86.26815864 76.40945862 -82.1484375 78.6484375 C-75.67723725 80.64484478 -69.32083634 80.9558453 -62.59375 80.94921875 C-61.61155487 80.95350388 -60.62935974 80.957789 -59.61740112 80.96220398 C-57.55174526 80.9679144 -55.48606931 80.96847198 -53.42041016 80.96411133 C-50.28903317 80.96095323 -47.15860421 80.98444612 -44.02734375 81.00976562 C-42.00781368 81.0120394 -39.9882811 81.01274175 -37.96875 81.01171875 C-36.58697067 81.02553337 -36.58697067 81.02553337 -35.17727661 81.03962708 C-27.22288515 80.98402428 -17.46119272 79.9430064 -11.1484375 74.6484375 C-9.29957789 70.91138084 -8.85181123 67.79677186 -8.8359375 63.6484375 C-8.81080078 62.1325 -8.81080078 62.1325 -8.78515625 60.5859375 C-9.20971813 57.15292104 -9.9921245 55.34736755 -12.1484375 52.6484375 C-14.43728419 51.4506742 -14.43728419 51.4506742 -17.0234375 50.8984375 C-18.28800781 50.56585938 -18.28800781 50.56585938 -19.578125 50.2265625 C-23.71538474 49.29599344 -27.58342366 48.52581343 -31.83666992 48.49072266 C-32.73918991 48.48046051 -33.6417099 48.47019836 -34.57157898 48.45962524 C-35.53924698 48.45232391 -36.50691498 48.44502258 -37.50390625 48.4375 C-39.59310622 48.40938864 -41.6822988 48.38072401 -43.77148438 48.3515625 C-47.03344162 48.31068767 -50.29526746 48.27377038 -53.55737305 48.24707031 C-90.80971239 47.91641981 -90.80971239 47.91641981 -99.73828125 41.1640625 C-106.24878415 34.16662448 -106.52541642 24.94113415 -106.421875 15.83984375 C-105.89539221 9.69503753 -103.4654102 5.64105167 -99.0859375 1.3984375 C-94.62869751 -2.12144301 -89.53168826 -3.73658727 -84.1484375 -5.3515625 C-83.44460938 -5.56683594 -82.74078125 -5.78210938 -82.015625 -6.00390625 C-59.96900258 -12.11805052 -19.25799857 -13.40574459 0 0 Z " fill="#050505" transform="translate(354.1484375,118.3515625)"/>
<path d="M0 0 C5.28 0 10.56 0 16 0 C16.33 15.18 16.66 30.36 17 46 C18.98 43.525 18.98 43.525 21 41 C34.24739267 31.22216255 48.86120092 29.64345534 64.9375 29.6875 C66.10990234 29.67138672 67.28230469 29.65527344 68.49023438 29.63867188 C81.58023908 29.63144382 95.71675959 31.87903245 105.9765625 40.69921875 C112.7308686 48.1023375 114.13058038 56.56918494 114.11352539 66.29052734 C114.11367142 66.99366058 114.11381744 67.69679382 114.1139679 68.42123413 C114.11327584 70.72616755 114.1055168 73.03101834 114.09765625 75.3359375 C114.09578956 76.94161942 114.09436684 78.54730192 114.09336853 80.15298462 C114.08956315 84.36482332 114.07974988 88.57662716 114.06866455 92.78845215 C114.05840777 97.09203622 114.05386179 101.39562596 114.04882812 105.69921875 C114.03812573 114.13283023 114.02054507 122.56640675 114 131 C108.72 131 103.44 131 98 131 C97.98541748 129.01750244 97.97083496 127.03500488 97.95581055 124.99243164 C97.90399453 118.41452288 97.83866492 111.83685472 97.76428509 105.25916386 C97.71971227 101.27427792 97.6804281 97.28949115 97.65356445 93.30444336 C97.62739982 89.45278418 97.58690662 85.60150929 97.53681374 81.75008965 C97.52023338 80.28667447 97.50866445 78.82319297 97.50238609 77.35969734 C97.78684061 64.45238753 97.78684061 64.45238753 92.41825867 53.16688538 C82.47668114 43.62076035 68.15669338 44.7104881 55.34375 44.85546875 C43.06979978 45.12314532 29.88423555 45.94518162 20.79296875 55.26171875 C17.41157256 60.42589899 16.7510679 65.78227102 16.68115234 71.85327148 C16.67110672 72.49802933 16.6610611 73.14278717 16.65071106 73.80708313 C16.62012852 75.91174528 16.60291454 78.01628177 16.5859375 80.12109375 C16.56720569 81.59083621 16.5476308 83.06056815 16.5272522 84.5302887 C16.47613737 88.3787106 16.43640188 92.22716728 16.39910889 96.07574463 C16.35893899 100.01086893 16.3079062 103.94585111 16.2578125 107.88085938 C16.16129798 115.58714902 16.07782112 123.29349476 16 131 C10.72 131 5.44 131 0 131 C0 87.77 0 44.54 0 0 Z " fill="#020202" transform="translate(572,80)"/>
<path d="M0 0 C1.20462891 0.433125 1.20462891 0.433125 2.43359375 0.875 C9.7501278 3.9731165 14.36066133 9.92528461 17.375 17.125 C19.60320686 23.03459211 20.1250419 28.72712072 20.11352539 35.01513672 C20.11367142 35.68900925 20.11381744 36.36288177 20.1139679 37.05717468 C20.11327621 39.26471273 20.10551897 41.47216436 20.09765625 43.6796875 C20.09578942 45.21810866 20.09436677 46.75653042 20.09336853 48.29495239 C20.08956419 52.32924055 20.07975184 56.36349227 20.06866455 60.39776611 C20.0584055 64.52038073 20.05386131 68.64300128 20.04882812 72.765625 C20.03812757 80.84376852 20.02054778 88.92187552 20 97 C14.72 97 9.44 97 4 97 C3.9906543 95.01750244 3.98130859 93.03500488 3.97167969 90.99243164 C3.93604176 84.41448209 3.88217395 77.83687542 3.81609726 71.25916386 C3.77672464 67.2742412 3.74448656 63.28953613 3.72900391 59.30444336 C3.71376931 55.45270333 3.67920536 51.60156191 3.63169098 47.75008965 C3.61694677 46.28667872 3.60896301 44.8231823 3.60811615 43.35969734 C3.5986218 35.17326997 3.28830127 28.19011213 -1 21 C-1.53625 20.071875 -2.0725 19.14375 -2.625 18.1875 C-13.32592778 8.33138231 -31.76615486 10.52484559 -45.17041016 10.86816406 C-54.97397664 11.32493075 -64.34070509 13.55480076 -72 20 C-76.35907369 25.37037878 -77.11569476 30.8034364 -77.20532227 37.51269531 C-77.22017166 38.47917496 -77.22017166 38.47917496 -77.23532104 39.46517944 C-77.26680429 41.58612445 -77.29164103 43.70709181 -77.31640625 45.828125 C-77.33698718 47.30215015 -77.35798395 48.77616955 -77.37937927 50.25018311 C-77.4344824 54.12332491 -77.48394334 57.99651895 -77.53222656 61.86975098 C-77.58252763 65.82467274 -77.63816871 69.77951898 -77.69335938 73.734375 C-77.80079707 81.48952107 -77.90178006 89.2447307 -78 97 C-83.61 97 -89.22 97 -95 97 C-95.02312132 84.37004515 -95.04091401 71.7400953 -95.05181217 59.11012363 C-95.05704146 53.24617836 -95.06413994 47.38224751 -95.07543945 41.51831055 C-95.0862667 35.86438288 -95.09227649 30.21046913 -95.09487724 24.55653191 C-95.09673179 22.3942639 -95.10035295 20.23199669 -95.10573006 18.06973457 C-95.11293833 15.05241343 -95.11399103 12.03515057 -95.11352539 9.01782227 C-95.11712067 8.1143959 -95.12071594 7.21096954 -95.12442017 6.28016663 C-95.11405216 0.11405216 -95.11405216 0.11405216 -94 -1 C-91.30345146 -1.07319621 -88.63308542 -1.09242537 -85.9375 -1.0625 C-85.17888672 -1.05798828 -84.42027344 -1.05347656 -83.63867188 -1.04882812 C-81.75908129 -1.0370068 -79.87953101 -1.01907078 -78 -1 C-77.505 5.93 -77.505 5.93 -77 13 C-76.2575 11.96875 -75.515 10.9375 -74.75 9.875 C-70.50740968 4.88312166 -64.90812171 2.56840284 -59 0 C-58.17113281 -0.36222656 -57.34226563 -0.72445312 -56.48828125 -1.09765625 C-39.78677596 -7.15424608 -16.4647775 -6.2475045 0 0 Z " fill="#060606" transform="translate(206,114)"/>
<path d="M0 0 C5.61 0 11.22 0 17 0 C17 43.23 17 86.46 17 131 C11.39 131 5.78 131 0 131 C0 87.77 0 44.54 0 0 Z " fill="#080808" transform="translate(68,80)"/>
<path d="M0 0 C5.28 0 10.56 0 16 0 C16 32.34 16 64.68 16 98 C10.39 98 4.78 98 -1 98 C-1.02312132 85.37004515 -1.04091401 72.7400953 -1.05181217 60.11012363 C-1.05704146 54.24617836 -1.06413994 48.38224751 -1.07543945 42.51831055 C-1.0862667 36.86438288 -1.09227649 31.21046913 -1.09487724 25.55653191 C-1.09673179 23.3942639 -1.10035295 21.23199669 -1.10573006 19.06973457 C-1.11293833 16.05241343 -1.11399103 13.03515057 -1.11352539 10.01782227 C-1.11712067 9.1143959 -1.12071594 8.21096954 -1.12442017 7.28016663 C-1.11405216 1.11405216 -1.11405216 1.11405216 0 0 Z " fill="#080808" transform="translate(390,113)"/>
<path d="M0 0 C11.22 0 22.44 0 34 0 C34 11.22 34 22.44 34 34 C22.78 34 11.56 34 0 34 C0 22.78 0 11.56 0 0 Z " fill="#E20A77" transform="translate(825,144)"/>
<path d="M0 0 C11.22 0 22.44 0 34 0 C34 11.22 34 22.44 34 34 C22.78 34 11.56 34 0 34 C0 22.78 0 11.56 0 0 Z " fill="#E20977" transform="translate(717,144)"/>
<path d="M0 0 C5.61 0 11.22 0 17 0 C17 5.28 17 10.56 17 16 C11.39 16 5.78 16 0 16 C0 10.72 0 5.44 0 0 Z " fill="#090909" transform="translate(389,80)"/>
<path d="M0 0 C0.66 0.33 1.32 0.66 2 1 C-2.29 5.29 -6.58 9.58 -11 14 C-11 9.40845608 -8.09282279 7.18698368 -5 4 C-3.3719908 2.61973133 -1.71956118 1.26438322 0 0 Z " fill="#F3C4DD" transform="translate(745,84)"/>
</svg>
